<svg xmlns="http://www.w3.org/2000/svg" width="512" height="512" viewBox="0 0 512 512"><g fill="#008cdb"><path d="M385.7 224.8c-2.1 0-4.2.2-6.2.6-7.7-19.8-22.8-35.8-41.9-44.9.2-1.3.3-2.5.3-3.8 0-16.8-13.5-30.3-30.2-30.3-7.1 0-13.7 2.5-18.7 6.5V200.5c5 4.1 11.6 6.5 18.7 6.5 10.3 0 19.4-5.2 24.9-13.1 15.6 7.7 27.8 21.2 34 37.6-6.8 5.6-11.2 14-11.2 23.5 0 9.6 4.5 18.1 11.4 23.7-6 16.8-18.4 30.5-34.3 38.3-5.5-7.8-14.5-13-24.8-13-7.1 0-13.7 2.5-18.7 6.5v47.6c5 4.1 11.6 6.5 18.7 6.5 16.8 0 30.3-13.6 30.3-30.3 0-1.3-.1-2.6-.3-3.8 19.3-9.2 34.5-25.5 42.1-45.6 1.9.4 3.9.6 5.9.6 16.8 0 30.3-13.6 30.3-30.3 0-16.8-13.6-30.4-30.3-30.4M96.3 138l-.4 236L272 406V106L96.3 138zm99.3 177c-14.4 10.4-33.2 6-48.3-.2-.2-8.8-.4-17.6-.7-26.4 9.7 7.2 24.1 17.7 35.6 7.9 9-15-8.6-24.6-18.8-31.9-21.8-13.2-22.6-49.3-1.5-63.4 12.4-7.8 27.5-5.4 41.2-3.4l.6 24.9c-11.4-3.6-25.9-10.8-35.2.8-6.5 17 14.1 23.5 24.1 32.4 19.4 12.5 21.1 44.8 3 59.3"/></g></svg>